<svg version="1.1" viewBox="0.0 0.0 960.0 720.0" fill="none" stroke="none" stroke-linecap="square" stroke-miterlimit="10" xmlns:xlink="http://www.w3.org/1999/xlink" xmlns="http://www.w3.org/2000/svg"><clipPath id="p.0"><path d="m0 0l960.0 0l0 720.0l-960.0 0l0 -720.0z" clip-rule="nonzero"/></clipPath><g clip-path="url(#p.0)"><path fill="#000000" fill-opacity="0.0" d="m0 0l960.0 0l0 720.0l-960.0 0z" fill-rule="evenodd"/><path fill="#ffffff" d="m428.23773 10.607701l106.64569 0l0 698.8031l-106.64569 0z" fill-rule="evenodd"/><path stroke="#000000" stroke-width="12.939632545931758" stroke-linejoin="round" stroke-linecap="butt" d="m428.23773 10.607701l106.64569 0l0 698.8031l-106.64569 0z" fill-rule="evenodd"/><path fill="#ffffff" d="m583.5171 10.607701l0 0c142.94171 0 258.81885 98.49735 258.81885 220.0c0 121.502655 -115.87714 220.0 -258.81885 220.0l0 -110.0c82.19037 0 148.81885 -49.248657 148.81885 -110.0c0 -60.751312 -66.62848 -109.99999 -148.81885 -109.99999z" fill-rule="evenodd"/><path stroke="#000000" stroke-width="12.939632545931758" stroke-linejoin="round" stroke-linecap="butt" d="m583.5171 10.607701l0 0c142.94171 0 258.81885 98.49735 258.81885 220.0c0 121.502655 -115.87714 220.0 -258.81885 220.0l0 -110.0c82.19037 0 148.81885 -49.248657 148.81885 -110.0c0 -60.751312 -66.62848 -109.99999 -148.81885 -109.99999z" fill-rule="evenodd"/><path fill="#000000" d="m376.48294 450.58685l0 0c-142.94173 0 -258.8189 -98.497375 -258.8189 -220.00002c0 -121.50264 115.87717 -220.0 258.8189 -220.0l0 110.0c-82.1904 0 -148.8189 49.24868 -148.8189 109.99999c0 60.751328 66.628494 110.000015 148.8189 110.000015z" fill-rule="evenodd"/><path stroke="#ffffff" stroke-width="12.939632545931758" stroke-linejoin="round" stroke-linecap="butt" d="m376.48294 450.58685l0 0c-142.94173 0 -258.8189 -98.497375 -258.8189 -220.00002c0 -121.50264 115.87717 -220.0 258.8189 -220.0l0 110.0c-82.1904 0 -148.8189 49.24868 -148.8189 109.99999c0 60.751328 66.628494 110.000015 148.8189 110.000015z" fill-rule="evenodd"/></g></svg>